<?xml version="1.0" encoding="UTF-8"?>
<svg id="Camada_2" data-name="Camada 2" xmlns="http://www.w3.org/2000/svg" viewBox="0 0 1157.33 306.48">
  <defs>
    <style>
      .cls-1, .cls-2, .cls-3 {
        fill: #66c;
      }

      .cls-1, .cls-2, .cls-4 {
        font-family: Arial-BoldMT, Arial;
        font-weight: 700;
      }

      .cls-1, .cls-4 {
        font-size: 156.92px;
      }

      .cls-2 {
        font-size: 56.53px;
      }

      .cls-3, .cls-5 {
        fill-rule: evenodd;
        stroke-width: 0px;
      }

      .cls-4, .cls-5 {
        fill: #f60;
      }
    </style>
  </defs>
  <g id="Camada_1-2" data-name="Camada 1">
    <g>
      <path class="cls-3" d="M117.53,182.88v-23.8h3.22v16.09c0,2.71,1.06,5.18,2.79,7.03-1.99.32-3.99.54-6.01.68"/>
      <path class="cls-3" d="M211.49,70.24h86.44c7.87,0,14.31,6.44,14.31,14.31v113.56c0,7.87-6.44,14.31-14.31,14.31h-166.09c-.49,0-.98-.03-1.46-.07,17.73.13,34.87-6.02,49.24-17.28h119.1c5.66,0,10.3-4.63,10.3-10.3v-101.62c0-5.66-4.63-10.3-10.3-10.3h-86.36c-.28-.88-.57-1.75-.87-2.62"/>
      <path class="cls-3" d="M237.57,185.01c-7.72-7.19-12.55-17.44-12.55-28.82,0-21.75,17.63-39.38,39.38-39.38,11.38,0,21.63,4.83,28.82,12.55-7.03-6.55-16.46-10.56-26.83-10.56-21.75,0-39.38,17.63-39.38,39.38,0,10.37,4.01,19.8,10.56,26.83"/>
      <path class="cls-3" d="M237.57,185.01c-7.72-7.19-12.55-17.44-12.55-28.82,0-21.75,17.63-39.38,39.38-39.38,11.38,0,21.63,4.83,28.82,12.55-7.03-6.55-16.46-10.56-26.83-10.56-21.75,0-39.38,17.63-39.38,39.38,0,10.37,4.01,19.8,10.56,26.83"/>
      <path class="cls-3" d="M248.75,183.85c-6.01-5.6-9.77-13.57-9.77-22.43,0-16.92,13.72-30.64,30.64-30.64,8.86,0,16.84,3.76,22.43,9.77-5.47-5.1-12.81-8.22-20.88-8.22-16.92,0-30.64,13.72-30.64,30.64,0,8.07,3.12,15.41,8.22,20.88"/>
      <path class="cls-3" d="M259.88,182.76c-4.31-4.02-7.01-9.74-7.01-16.1,0-12.15,9.85-22,22-22,6.36,0,12.09,2.7,16.1,7.01-3.93-3.66-9.2-5.9-14.99-5.9-12.15,0-22,9.85-22,22,0,5.79,2.24,11.06,5.9,14.99"/>
      <path class="cls-3" d="M162.33,9.4h34.08c7.87,0,14.31,6.44,14.31,14.31v33.61c-1.01-2.13-2.08-4.22-3.22-6.27v-28.73c0-5.66-4.63-10.3-10.3-10.3h-29.28c-1.83-.94-3.69-1.81-5.59-2.62"/>
      <path class="cls-3" d="M14.31,9.4h104.13c2.22.7,4.44,1.52,6.64,2.45.13.06.26.12.4.17H13.52c-5.66,0-10.3,4.63-10.3,10.3v101.62c0,5.66,4.63,10.3,10.3,10.3h156.78c-2.64,6.31-5.89,12.12-9.64,17.36H14.31c-7.87,0-14.31-6.44-14.31-14.31V23.72c0-7.87,6.44-14.31,14.31-14.31"/>
      <path class="cls-3" d="M78.41,29.39c7.72,7.19,12.55,17.44,12.55,28.82,0,21.75-17.63,39.38-39.38,39.38-11.38,0-21.63-4.83-28.82-12.55,7.03,6.55,16.46,10.56,26.83,10.56,21.75,0,39.38-17.63,39.38-39.38,0-10.37-4.01-19.79-10.56-26.83"/>
      <path class="cls-3" d="M67.23,30.55c6.01,5.59,9.77,13.57,9.77,22.43,0,16.92-13.72,30.64-30.65,30.64-8.86,0-16.83-3.76-22.43-9.77,5.47,5.1,12.81,8.22,20.88,8.22,16.92,0,30.65-13.72,30.65-30.64,0-8.07-3.12-15.41-8.22-20.88"/>
      <path class="cls-3" d="M56.1,31.63c4.31,4.02,7.01,9.74,7.01,16.1,0,12.15-9.85,22-22,22-6.36,0-12.09-2.7-16.1-7.01,3.93,3.66,9.2,5.9,14.99,5.9,12.15,0,22-9.85,22-22,0-5.79-2.24-11.06-5.9-14.99"/>
      <path class="cls-5" d="M92.89,202.35c-19.17-8.47-34.55-23.79-44.82-42.65,8.22,10.19,18.47,18.42,30.38,23.68,41.19,18.21,86.46-5.96,101.11-53.99,14.65-48.02-6.87-101.72-48.07-119.92-11.19-4.95-22.68-6.76-33.78-5.82,17.37-5.57,36.46-4.95,54.82,3.17,46.32,20.47,70.51,80.84,54.04,134.83-16.47,53.99-67.37,81.17-113.68,60.7"/>
      <path class="cls-5" d="M130.39,106.21v.36c0,1.08.32,2.14.7,3,.24.53.69,1.24,1.08,1.69.15.18.29.34.45.49l.48.44c.63.5.92.69,1.7,1.08.78.39,2.02.69,3.02.69,1.28,0,2.17-.21,3.24-.67,1.58-.68,3.03-2.11,3.74-3.68.39-.86.71-1.92.72-3,0-.73-.02-1.21-.2-1.95-.13-.52-.28-.93-.47-1.38-.34-.78-.93-1.6-1.52-2.19-.56-.57-1.27-1.1-2.18-1.53-.83-.39-1.98-.71-3.02-.71h-.34c-1.05,0-2.14.31-2.99.7-.9.41-1.63.97-2.18,1.52-.45.46-.87.98-1.2,1.56-.58,1.01-1.01,2.33-1.01,3.61M118.42,102.26v8.24c1.36,0,2.79.01,4.15,0,.1,0,.09,0,.12.02.11.34.18.63.31,1,.11.33.23.65.37.96.13.31.27.61.41.9.07.15.15.29.22.43l.24.43-3.02,3.02c.04.07,1.36,1.37,1.46,1.46.49.49.97.97,1.46,1.46.05.05,2.85,2.88,2.92,2.91.85-.87,1.77-1.77,2.64-2.64.07-.07.33-.35.39-.38.16.15,1.55.79,1.76.88.53.21,1.42.56,1.97.67v4.27h8.25v-4.27c.45-.09,1.57-.51,1.97-.67.63-.26,1-.46,1.56-.76.07-.04.16-.1.22-.12l3.01,3.01,5.83-5.83-3.01-3.02c.02-.06.08-.15.11-.21.32-.62.46-.86.76-1.56.14-.31.25-.63.37-.96.11-.32.23-.68.31-1.02h.07s.05-.01.07-.01h4.13v-8.24h-4.26c-.27-1.13-.79-2.3-1.32-3.32-.07-.14-.18-.3-.23-.43l3.01-3.01c-.03-.07-.62-.63-.72-.73l-2.19-2.19c-.49-.49-.97-.97-1.46-1.46l-1.09-1.09c-.12-.12-.25-.24-.36-.36l-1.51,1.5c-.47.47-1.04,1.06-1.51,1.51l-.86-.45c-.53-.27-1.3-.6-1.87-.78-.17-.05-.33-.11-.5-.16-.17-.05-.35-.09-.51-.15-.02-.04-.01-.09-.01-.14v-4.12h-8.24v4.24s-.45.15-.5.16c-.85.27-1.58.55-2.38.95l-.87.46c-.07-.05-2.4-2.4-2.64-2.63-.13-.13-.25-.26-.38-.38l-.72.72c-.39.39-5.07,5.05-5.11,5.12l3.01,3.01c-.03.07-.08.14-.12.21-.32.61-.46.88-.76,1.56-.14.32-.25.63-.37.96-.11.32-.23.68-.31,1.02h-4.26Z"/>
      <path class="cls-5" d="M148.86,73.25c-.97.08-1.82.44-2.52,1.04-.05.04-.1.09-.15.13-.11.09-.18.19-.27.28-.09.08-.17.2-.24.3-.08.11-.15.21-.22.33-.14.22-.26.47-.37.74-.55,1.44-.3,3.07.64,4.27.04.05.07.1.12.15.35.39.59.61,1.03.89.22.14.48.27.74.37,1.78.68,3.72.12,4.84-1.17l.24-.3c.08-.11.15-.21.22-.33.47-.75.71-1.71.65-2.63-.17-2.42-2.32-4.26-4.72-4.06M149.79,68.45c-.2,0-.41-.02-.62-.02s-.41,0-.62.02c-.19.01-.38.03-.57.06-.17.02-.39.07-.55.08l-1.1-2.22-4.3,2.11,1.09,2.23c-.07.08-.15.12-.21.2-.07.07-.14.13-.22.21l-.59.65c-.18.22-.38.48-.54.72l-2.35-.8-1.55,4.55,2.35.8c-.04,1.07-.01,1.32.15,2.36l-2.23,1.09,1.58,3.23c.07.14.49,1.03.53,1.07l2.22-1.09c.07.07.13.16.2.22.13.12.37.39.52.51l.22.19s.08.06.11.1c.07.06.15.12.23.19l.48.35-.8,2.34c.05.04,3.63,1.25,3.97,1.36.16.05.42.16.57.19l.8-2.35c.19,0,.42.02.62.02.4,0,.79-.02,1.18-.08.17-.02.4-.08.55-.09l1.09,2.22,4.31-2.11-1.09-2.23c.07-.08.43-.39.63-.61.03-.04.07-.07.1-.11l.19-.22c.12-.13.36-.44.46-.59.06-.08.11-.17.17-.25l2.35.8,1.55-4.54-2.34-.8c-.02-.06.01-.48.01-.59,0-.7-.06-1.07-.17-1.76.18-.08.88-.43,1.11-.55.18-.09.99-.5,1.11-.54l-2.11-4.31c-.11.03-2.14,1.07-2.24,1.08-.05-.05-.06-.06-.09-.11-.22-.26-.49-.48-.74-.72l-.46-.37c-.08-.06-.15-.12-.23-.17l-.24-.18.8-2.34s-.99-.34-1.12-.39c-.22-.08-3.32-1.15-3.42-1.16l-.81,2.34Z"/>
      <path class="cls-5" d="M161.09,94.39c0,.68.11,1.23.38,1.81.11.23.23.45.36.64.4.57,1.01,1.1,1.65,1.38.64.28,1.11.38,1.85.38.55,0,1.21-.18,1.63-.39.39-.19.88-.51,1.19-.84.76-.81,1.19-1.77,1.19-2.97s-.63-2.27-1.22-2.86c-.15-.15-.38-.34-.56-.46-1.16-.81-2.77-.99-4.07-.37-.25.12-.44.22-.65.37-.96.67-1.77,1.9-1.77,3.31M166.01,85.87c-.54-.05-1.13-.05-1.68,0-.17.02-.36.06-.53.07l-.97-2.11-4.1,1.87.96,2.12s-.06.05-.1.09l-.31.28c-.07.06-.13.12-.2.19-.18.18-.39.42-.56.62-.06.07-.31.39-.34.45l-2.19-.81c-.05.06-.17.42-.2.52l-1.18,3.16c-.06.16-.15.36-.19.53.02.02,2.03.78,2.18.82,0,.17-.03.38-.03.55-.01.38,0,.76.04,1.13.02.17.06.37.07.54l-2.11.96,1.87,4.1,2.11-.97.37.4c.28.3.41.42.71.67.05.04.06.05.11.09l.44.34-.81,2.18,4.23,1.57.81-2.18c.08-.01.43.02.55.03.64.02,1.04-.03,1.67-.11l.97,2.11,4.09-1.87-.96-2.12.98-.96c.18-.19.47-.6.53-.66l2.18.81,1.58-4.22c-.12-.03-1.46-.54-1.64-.61-.11-.04-.48-.16-.54-.21,0-.18.03-.37.03-.55.02-.71-.04-.98-.11-1.66l2.11-.96c-.02-.08-1.29-2.82-1.39-3.07-.06-.13-.44-.98-.48-1.03l-2.12.96-.76-.81c-.21-.19-.4-.36-.64-.53-.05-.03-.19-.14-.22-.17l.81-2.18-4.22-1.58-.82,2.19Z"/>
      <path class="cls-5" d="M153.21,110.51h4.27c.03-.13,0-7.07,0-8.13,0-.05,0-.09-.01-.12v8.24h-4.13s-.05,0-.07,0h-.07Z"/>
      <path class="cls-5" d="M122.68,110.52s-.02-.02-.12-.02c-1.36.01-2.79,0-4.15,0v-8.24s-.01.18-.01.24c0,.93-.02,7.9,0,8.01h4.27Z"/>
      <path class="cls-5" d="M142.07,91.12v-4.27c-.14-.01-1.88,0-2.07,0h-6.19s8.24.01,8.24.01v4.12c0,.05,0,.1.01.14"/>
    </g>
    <g>
      <text class="cls-1" transform="translate(331.71 212.03)"><tspan x="0" y="0">T</tspan></text>
      <text class="cls-1" transform="translate(415.93 212.03)"><tspan x="0" y="0">ech</tspan></text>
      <text class="cls-4" transform="translate(686.33 212.03)"><tspan x="0" y="0">Assist</tspan></text>
    </g>
    <text class="cls-2" transform="translate(0 285.19)"><tspan x="0" y="0">Mais que tecnologia, assistência completa.</tspan></text>
  </g>
</svg>